# xmcd CD database file
# Copyright (C) 1993-1998 Ti Kan
# 
# Track frame offsets:
#     150
#     10483
#     22550
#     33573
#     42050
#     52763
#     62850
#     78038
#     86213
#     98138
#     107125
#     115168
#     124250
#     135300
#     145725
# 
# Disc length: 2097 seconds
# 
# Revision: 1
# Processed by: cddbd v1.4b41PL1 Copyright (c) Steve Scherf et al.
# Submitted via: DiscPlay 4.0.4
# 
DISCID=b6082f0f
DTITLE=Varios - Pasadobles Ole
DYEAR=1900
DGENRE=
TTITLE0=Espa a Ca i
TTITLE1=Con divisa verde y oro
TTITLE2=En el mundo
TTITLE3=Marcial, eres el mas grande
TTITLE4=Islas Canarias
TTITLE5=Pasadoble, te quiero
TTITLE6=Suspiros de Espa a
TTITLE7=El gato montes
TTITLE8=Gallito
TTITLE9=Mi jaca
TTITLE10=Noches bonitas de Espa a
TTITLE11=La giralda
TTITLE12=El Cordoves
TTITLE13=La Virgen de la Macarena
TTITLE14=El replicario
EXTD=
EXTT0=
EXTT1=
EXTT2=
EXTT3=
EXTT4=
EXTT5=
EXTT6=
EXTT7=
EXTT8=
EXTT9=
EXTT10=
EXTT11=
EXTT12=
EXTT13=
EXTT14=
PLAYORDER=
